<?xml version="1.0" standalone="no"?>

<!DOCTYPE svg PUBLIC "-//W3C//DTD SVG 20010904//EN"

 "http://www.w3.org/TR/2001/REC-SVG-20010904/DTD/svg10.dtd">

<svg version="1.0" xmlns="http://www.w3.org/2000/svg"

 width="900.000000pt" height="450.000000pt" viewBox="0 0 900.000000 450.000000"

 preserveAspectRatio="xMidYMid meet">

<path fill="#fefefe" stroke="none" d="
M0 225

L0 0

L450 0

L900 0

L900 225

L900 450

L450 450

L0 450

L0 225

Z

"/>

<path fill="#1a74bb" stroke="none" d="
M701 368

C694 366 689 362 685 357

C683 353 683 352 683 345

C683 336 685 331 692 325

C696 321 700 320 715 314

C718 313 720 312 720 310

C721 306 721 305 717 308

C711 314 706 315 696 315

C688 315 687 315 683 313

C678 310 676 307 674 302

L673 299

L668 304

C660 312 653 315 642 316

C635 316 633 316 630 314

C625 312 621 307 620 301

L619 298

L613 304

C606 312 598 315 589 316

C577 317 569 313 563 303

C562 301 561 298 560 298

C560 298 559 300 557 302

C544 316 520 319 511 308

C509 306 508 304 507 302

L506 298

L500 304

C491 313 486 316 474 316

C465 316 464 315 460 313

C455 310 449 303 449 300

C449 298 448 299 442 304

C432 314 421 317 409 316

C403 315 398 310 395 305

C392 299 392 286 395 275

C396 270 398 260 399 254

C403 236 403 229 398 227

C393 225 386 229 382 237

C380 240 376 254 371 278

L364 315

L348 315

C333 315 332 315 332 313

C333 312 333 310 334 308

L334 305

L331 307

C325 313 318 315 310 316

C302 316 297 315 293 312

C290 310 286 303 286 300

C286 299 286 298 286 298

C285 298 283 300 280 303

C273 311 265 315 256 316

C243 317 235 312 230 303

L227 297

L222 303

C219 306 214 309 210 311

C204 314 203 315 195 315

C187 315 185 314 182 312

C178 310 174 305 173 301

C173 299 172 298 172 298

C172 298 170 300 169 302

C165 307 156 313 150 315

C145 316 136 316 131 315

C128 314 125 312 121 308

C117 304 116 302 114 297

C109 280 114 252 125 233

C130 225 140 215 146 212

C159 204 176 204 183 211

L185 214

L189 197

C191 187 193 177 194 174

L195 168

L211 166

C219 165 227 164 227 165

C227 165 222 192 215 225

C208 258 202 286 202 288

C202 292 204 294 209 295

C213 295 214 295 217 293

C223 289 225 285 225 275

C227 245 244 216 265 209

C271 206 283 205 289 207

C291 208 294 209 295 211

C298 214 298 214 299 210

C300 208 300 207 315 207

C324 207 331 207 331 208

C331 208 327 225 323 246

C319 267 315 285 315 288

C315 295 323 299 330 294

C337 289 339 284 351 224

L363 168

L379 166

C387 165 395 164 395 165

C395 165 392 179 387 206

L384 217

L389 213

C397 207 405 205 414 207

C422 208 427 212 430 218

C432 221 432 223 432 232

C432 241 432 245 428 262

C421 288 421 293 429 295

C434 296 439 294 443 290

C446 287 446 286 446 276

C447 259 452 245 460 231

C472 213 486 205 504 206

C512 207 515 209 518 213

C519 215 519 215 520 209

C521 206 523 196 525 186

L529 169

L544 166

C553 165 560 164 561 164

C561 164 555 192 548 226

C540 264 535 288 536 289

C537 297 550 297 556 288

C557 287 558 281 559 274

C562 243 578 217 598 209

C602 207 606 207 613 207

C623 206 627 208 630 212

L632 215

L632 211

L633 207

L649 207

C664 207 665 207 664 209

C664 212 650 277 649 282

C648 288 649 293 652 295

C656 297 661 296 665 293

C671 287 673 282 681 244

L689 208

L704 207

C713 207 720 207 720 207

C720 208 716 225 712 246

C708 267 704 285 704 286

C704 295 710 297 718 292

C724 288 726 280 734 243

L742 208

L757 207

C769 207 773 207 773 208

C773 211 745 339 744 344

C740 354 731 363 722 366

C716 369 706 369 701 368

Z

M707 347

C709 346 711 344 712 342

C714 337 718 321 717 321

C714 321 704 326 701 329

C694 336 693 343 698 347

C701 349 703 350 707 347

Z

M163 292

C165 290 168 287 169 285

C171 281 182 232 182 227

C182 223 178 220 174 220

C161 220 149 242 145 270

C142 291 150 300 163 292

Z

M272 294

C276 292 280 288 282 284

C284 280 295 232 295 227

C295 224 291 220 286 220

C275 220 263 240 259 264

C256 280 257 289 262 293

C265 295 267 296 272 294

Z

M494 293

C498 291 502 286 504 281

C505 278 508 265 511 251

C516 227 516 226 515 224

C511 218 503 219 496 226

C487 236 479 255 478 274

C478 285 479 290 483 293

C486 295 489 296 494 293

Z

M607 293

C611 291 615 286 617 282

C618 280 621 267 624 253

C629 229 629 227 628 224

C626 221 624 220 620 220

C606 220 591 250 591 277

C591 293 596 298 607 293

Z

M449 190

C449 187 441 161 436 149

C430 134 420 113 412 102

C409 97 407 93 408 93

C410 91 485 83 506 83

L512 83

L516 89

C525 102 535 125 538 139

L539 143

L519 153

C495 164 480 173 462 184

C456 188 450 192 450 192

C449 192 449 191 449 190

Z

M525 160

C525 160 525 157 525 155

L525 152

L535 147

C540 145 545 142 545 142

C547 140 538 114 531 101

C529 97 527 94 527 93

C527 93 539 93 554 92

L580 92

L583 96

C589 105 596 122 596 127

C596 129 594 131 580 136

C572 140 556 147 545 152

C530 160 526 162 525 160

Z

M583 140

C583 138 583 137 583 137

C583 136 588 134 594 132

C603 129 603 128 603 126

C603 122 599 112 596 106

L593 100

L595 100

C605 98 674 98 693 101

L699 101

L684 105

C658 112 628 123 599 137

L584 144

L583 140

Z

"/>

<path fill="#eb1d25" stroke="none" d="
M701 368

C694 366 689 362 685 357

C683 353 683 352 683 345

C683 336 685 331 692 325

C696 321 700 320 715 314

C718 313 720 312 720 310

C721 306 721 305 717 308

C711 314 706 315 696 315

C688 315 687 315 683 313

C678 310 676 307 674 302

L673 299

L668 304

C660 312 653 315 642 316

C635 316 633 316 630 314

C625 312 621 307 620 301

L619 298

L613 304

C606 312 598 315 589 316

C577 317 569 313 563 303

C562 301 561 298 560 298

C560 298 559 300 557 302

C544 316 520 319 511 308

C509 306 508 304 507 302

L506 298

L500 304

C491 313 486 316 474 316

C465 316 464 315 460 313

C455 310 449 303 449 300

C449 298 448 299 442 304

C432 314 421 317 409 316

C403 315 398 310 395 305

C392 299 392 286 395 275

C396 270 398 260 399 254

C403 236 403 229 398 227

C393 225 386 229 382 237

C380 240 376 254 371 278

L364 315

L348 315

C333 315 332 315 332 313

C333 312 333 310 334 308

L334 305

L331 307

C325 313 318 315 310 316

C302 316 297 315 293 312

C290 310 286 303 286 300

C286 299 286 298 286 298

C285 298 283 300 280 303

C273 311 265 315 256 316

C243 317 235 312 230 303

L227 297

L222 303

C219 306 214 309 210 311

C204 314 203 315 195 315

C187 315 185 314 182 312

C178 310 174 305 173 301

C173 299 172 298 172 298

C172 298 170 300 169 302

C165 307 156 313 150 315

C145 316 136 316 131 315

C128 314 125 312 121 308

C117 304 116 302 114 297

C109 280 114 252 125 233

C130 225 140 215 146 212

C159 204 176 204 183 211

L185 214

L189 197

C191 187 193 177 194 174

L195 168

L211 166

C219 165 227 164 227 165

C227 165 222 192 215 225

C208 258 202 286 202 288

C202 292 204 294 209 295

C213 295 214 295 217 293

C223 289 225 285 225 275

C227 245 244 216 265 209

C271 206 283 205 289 207

C291 208 294 209 295 211

C298 214 298 214 299 210

C300 208 300 207 315 207

C324 207 331 207 331 208

C331 208 327 225 323 246

C319 267 315 285 315 288

C315 295 323 299 330 294

C337 289 339 284 351 224

L363 168

L379 166

C387 165 395 164 395 165

C395 165 392 179 387 206

L384 217

L389 213

C397 207 405 205 414 207

C422 208 427 212 430 218

C432 221 432 223 432 232

C432 241 432 245 428 262

C421 288 421 293 429 295

C434 296 439 294 443 290

C446 287 446 286 446 276

C447 259 452 245 460 231

C472 213 486 205 504 206

C512 207 515 209 518 213

C519 215 519 215 520 209

C521 206 523 196 525 186

L529 169

L544 166

C553 165 560 164 561 164

C561 164 555 192 548 226

C540 264 535 288 536 289

C537 297 550 297 556 288

C557 287 558 281 559 274

C562 243 578 217 598 209

C602 207 606 207 613 207

C623 206 627 208 630 212

L632 215

L632 211

L633 207

L649 207

C664 207 665 207 664 209

C664 212 650 277 649 282

C648 288 649 293 652 295

C656 297 661 296 665 293

C671 287 673 282 681 244

L689 208

L704 207

C713 207 720 207 720 207

C720 208 716 225 712 246

C708 267 704 285 704 286

C704 295 710 297 718 292

C724 288 726 280 734 243

L742 208

L757 207

C769 207 773 207 773 208

C773 211 745 339 744 344

C740 354 731 363 722 366

C716 369 706 369 701 368

Z

M707 347

C709 346 711 344 712 342

C714 337 718 321 717 321

C714 321 704 326 701 329

C694 336 693 343 698 347

C701 349 703 350 707 347

Z

M163 292

C165 290 168 287 169 285

C171 281 182 232 182 227

C182 223 178 220 174 220

C161 220 149 242 145 270

C142 291 150 300 163 292

Z

M272 294

C276 292 280 288 282 284

C284 280 295 232 295 227

C295 224 291 220 286 220

C275 220 263 240 259 264

C256 280 257 289 262 293

C265 295 267 296 272 294

Z

M494 293

C498 291 502 286 504 281

C505 278 508 265 511 251

C516 227 516 226 515 224

C511 218 503 219 496 226

C487 236 479 255 478 274

C478 285 479 290 483 293

C486 295 489 296 494 293

Z

M607 293

C611 291 615 286 617 282

C618 280 621 267 624 253

C629 229 629 227 628 224

C626 221 624 220 620 220

C606 220 591 250 591 277

C591 293 596 298 607 293

Z

M449 190

C449 187 442 164 437 152

C431 135 421 115 413 103

C409 97 407 93 408 93

C412 91 487 83 506 83

L512 83

L516 90

C525 103 533 122 537 136

L539 143

L528 148

C504 159 482 172 460 186

C454 189 450 192 449 192

C449 192 449 191 449 190

Z

M525 160

C525 160 525 157 525 155

L525 152

L535 147

C540 145 545 142 545 142

C547 140 538 114 531 101

C529 97 527 94 527 93

C527 93 539 93 554 92

L580 92

L583 96

C589 105 596 122 596 127

C596 129 594 131 580 136

C572 140 556 147 545 152

C530 160 526 162 525 160

Z

"/>

<path fill="#5b5b5b" stroke="none" d="
M701 368

C694 366 689 362 685 357

C683 353 683 352 683 345

C683 336 685 331 692 325

C696 321 700 320 715 314

C718 313 720 312 720 310

C721 306 721 305 717 308

C711 314 706 315 696 315

C688 315 687 315 683 313

C678 310 676 307 674 302

L673 299

L668 304

C660 312 653 315 642 316

C635 316 633 316 630 314

C625 312 621 307 620 301

L619 298

L613 304

C606 312 598 315 589 316

C577 317 569 313 563 303

C562 301 561 298 560 298

C560 298 559 300 557 302

C544 316 520 319 511 308

C509 306 508 304 507 302

L506 298

L500 304

C491 313 486 316 474 316

C465 316 464 315 460 313

C455 310 449 303 449 300

C449 298 448 299 442 304

C432 314 421 317 409 316

C403 315 398 310 395 305

C392 299 392 286 395 275

C396 270 398 260 399 254

C403 236 403 229 398 227

C393 225 386 229 382 237

C380 240 376 254 371 278

L364 315

L348 315

C333 315 332 315 332 313

C333 312 333 310 334 308

L334 305

L331 307

C325 313 318 315 310 316

C302 316 297 315 293 312

C290 310 286 303 286 300

C286 299 286 298 286 298

C285 298 283 300 280 303

C273 311 265 315 256 316

C243 317 235 312 230 303

L227 297

L222 303

C219 306 214 309 210 311

C204 314 203 315 195 315

C187 315 185 314 182 312

C178 310 174 305 173 301

C173 299 172 298 172 298

C172 298 170 300 169 302

C165 307 156 313 150 315

C145 316 136 316 131 315

C128 314 125 312 121 308

C117 304 116 302 114 297

C109 280 114 252 125 233

C130 225 140 215 146 212

C159 204 176 204 183 211

L185 214

L189 197

C191 187 193 177 194 174

L195 168

L211 166

C219 165 227 164 227 165

C227 165 222 192 215 225

C208 258 202 286 202 288

C202 292 204 294 209 295

C213 295 214 295 217 293

C223 289 225 285 225 275

C227 245 244 216 265 209

C271 206 283 205 289 207

C291 208 294 209 295 211

C298 214 298 214 299 210

C300 208 300 207 315 207

C324 207 331 207 331 208

C331 208 327 225 323 246

C319 267 315 285 315 288

C315 295 323 299 330 294

C337 289 339 284 351 224

L363 168

L379 166

C387 165 395 164 395 165

C395 165 392 179 387 206

L384 217

L389 213

C397 207 405 205 414 207

C422 208 427 212 430 218

C432 221 432 223 432 232

C432 241 432 245 428 262

C421 288 421 293 429 295

C434 296 439 294 443 290

C446 287 446 286 446 276

C447 259 452 245 460 231

C472 213 486 205 504 206

C512 207 515 209 518 213

C519 215 519 215 520 209

C521 206 523 196 525 186

L529 169

L544 166

C553 165 560 164 561 164

C561 164 555 192 548 226

C540 264 535 288 536 289

C537 297 550 297 556 288

C557 287 558 281 559 274

C562 243 578 217 598 209

C602 207 606 207 613 207

C623 206 627 208 630 212

L632 215

L632 211

L633 207

L649 207

C664 207 665 207 664 209

C664 212 650 277 649 282

C648 288 649 293 652 295

C656 297 661 296 665 293

C671 287 673 282 681 244

L689 208

L704 207

C713 207 720 207 720 207

C720 208 716 225 712 246

C708 267 704 285 704 286

C704 295 710 297 718 292

C724 288 726 280 734 243

L742 208

L757 207

C769 207 773 207 773 208

C773 211 745 339 744 344

C740 354 731 363 722 366

C716 369 706 369 701 368

Z

M707 347

C709 346 711 344 712 342

C714 337 718 321 717 321

C714 321 704 326 701 329

C694 336 693 343 698 347

C701 349 703 350 707 347

Z

M163 292

C165 290 168 287 169 285

C171 281 182 232 182 227

C182 223 178 220 174 220

C161 220 149 242 145 270

C142 291 150 300 163 292

Z

M272 294

C276 292 280 288 282 284

C284 280 295 232 295 227

C295 224 291 220 286 220

C275 220 263 240 259 264

C256 280 257 289 262 293

C265 295 267 296 272 294

Z

M494 293

C498 291 502 286 504 281

C505 278 508 265 511 251

C516 227 516 226 515 224

C511 218 503 219 496 226

C487 236 479 255 478 274

C478 285 479 290 483 293

C486 295 489 296 494 293

Z

M607 293

C611 291 615 286 617 282

C618 280 621 267 624 253

C629 229 629 227 628 224

C626 221 624 220 620 220

C606 220 591 250 591 277

C591 293 596 298 607 293

Z

M449 190

C449 187 442 164 437 152

C431 135 421 115 413 103

C409 97 407 93 408 93

C412 91 487 83 506 83

L512 83

L516 90

C525 103 533 122 537 136

L539 143

L528 148

C504 159 482 172 460 186

C454 189 450 192 449 192

C449 192 449 191 449 190

Z

"/>

<path fill="#009345" stroke="none" d="
M700 367

C693 365 686 359 684 354

C683 352 683 348 683 345

C683 331 691 323 709 317

C720 313 720 313 721 307

L722 304

L718 307

C711 313 705 315 696 315

C690 315 688 315 684 313

C679 311 675 306 674 301

C674 299 674 298 673 298

C673 298 671 300 668 303

C659 313 646 318 635 315

C626 313 623 309 619 298

C619 297 616 300 613 303

C604 312 597 315 587 315

C580 315 578 315 575 313

C570 311 565 306 562 301

C562 299 561 297 561 297

C560 297 557 300 554 303

C546 311 539 314 528 314

C521 314 519 314 516 312

C511 309 507 303 507 299

C507 298 507 297 507 297

C506 297 503 300 499 304

C493 310 490 312 486 314

C479 316 469 316 463 314

C458 312 450 304 449 300

C449 299 449 298 448 298

C448 298 446 300 443 303

C433 313 420 317 410 315

C402 314 400 312 396 306

C394 302 394 301 394 292

C394 284 394 278 398 264

C403 242 403 238 402 233

C401 226 395 224 388 228

C381 233 379 238 371 277

L363 314

L348 314

C332 314 332 314 334 308

C335 306 335 304 335 304

C334 304 333 305 331 307

C323 314 309 317 300 315

C294 313 289 308 287 302

C286 300 286 297 285 297

C285 297 283 300 279 303

C269 314 256 318 245 315

C238 313 234 309 230 302

L227 297

L222 302

C214 310 207 313 197 314

C192 314 187 314 185 313

C180 312 175 306 174 301

L173 297

L166 304

C158 312 151 315 141 315

C132 315 127 314 122 309

C114 301 111 290 113 273

C116 242 134 215 154 209

C157 208 163 207 167 207

C177 207 182 209 184 213

C185 215 185 216 186 215

C186 215 188 204 191 192

C193 180 195 169 196 169

C196 169 223 165 225 165

C226 165 225 174 214 224

C208 255 202 283 201 286

C201 289 201 290 203 292

C207 297 218 295 223 288

C224 287 225 282 226 274

C228 249 239 227 254 216

C261 209 269 207 280 207

C290 207 295 209 297 214

L298 218

L298 215

C300 207 299 208 315 208

C327 208 330 208 330 209

C330 210 326 228 322 249

C317 273 314 288 314 290

C316 296 322 298 329 295

C337 291 338 287 352 225

C358 194 364 170 365 169

C366 168 394 164 394 165

C395 165 392 177 389 191

C386 205 384 217 384 217

C385 217 386 216 388 215

C393 210 401 207 408 207

C416 207 421 209 426 213

C431 217 432 221 432 234

C431 243 430 250 427 264

C421 285 421 289 424 293

C426 295 427 295 431 295

C436 295 439 294 444 290

C446 288 446 287 446 281

C446 266 451 247 459 234

C465 224 475 214 483 210

C488 208 489 208 500 208

C512 208 512 208 515 210

C517 212 518 214 518 215

C518 219 520 213 524 192

C527 180 529 169 530 169

C531 168 559 165 560 165

C560 166 555 193 548 225

C541 258 535 286 535 288

C535 293 538 295 544 295

C549 295 553 293 556 288

C558 285 559 283 559 275

C561 247 576 220 595 211

C601 208 602 207 612 207

C621 207 623 207 626 209

C628 210 630 212 630 214

L632 217

L633 213

L633 208

L649 208

C657 208 664 208 664 208

C664 209 660 226 656 246

C652 267 648 285 648 287

C648 297 659 300 666 292

C671 287 674 279 681 245

C685 227 688 211 688 210

C689 208 689 208 704 208

C715 208 719 208 719 209

C719 210 716 226 711 246

C707 265 704 283 704 286

C704 292 706 295 711 295

C716 295 722 290 725 283

C726 280 731 262 735 243

C739 224 742 209 742 208

C743 208 749 208 758 208

L773 209

L759 274

C751 309 744 341 743 344

C739 355 731 363 721 366

C716 368 704 368 700 367

Z

M707 348

C709 347 712 343 713 341

C715 336 719 321 718 320

C717 319 704 326 701 329

C697 332 694 338 694 341

C694 344 696 347 699 349

C703 350 703 350 707 348

Z

M161 294

C165 291 170 286 171 281

C172 278 175 265 178 251

C183 228 183 226 182 224

C181 222 179 221 177 220

C170 217 160 225 153 239

C148 250 145 261 144 275

C144 284 144 286 146 289

C147 291 148 293 149 294

C151 295 158 295 161 294

Z

M276 292

C282 287 284 282 290 253

C296 227 296 227 294 224

C292 220 287 218 282 220

C278 222 270 231 266 239

C258 256 254 282 259 291

C262 296 269 297 276 292

Z

M498 291

C500 290 502 287 503 285

C504 283 508 269 511 254

C516 229 517 227 515 224

C513 220 509 219 504 220

C491 223 478 252 478 277

C477 291 480 295 489 295

C493 294 495 293 498 291

Z

M608 293

C612 291 616 286 618 281

C619 277 629 231 629 228

C629 224 627 221 623 220

C612 217 599 232 593 255

C587 280 590 295 600 295

C602 295 606 294 608 293

Z

M450 191

C440 153 429 127 414 104

C408 95 407 93 409 93

C413 91 461 86 488 84

C514 82 511 82 516 89

C522 99 531 118 535 129

C539 141 539 144 536 145

C531 146 497 163 485 170

C478 174 468 180 461 185

C454 189 450 192 450 191

Z

"/>

<path fill="#000000" stroke="none" d="
M700 367

C693 365 686 359 684 354

C683 352 683 348 683 345

C683 331 691 323 709 317

C720 313 720 313 721 307

L722 304

L718 307

C711 313 705 315 696 315

C690 315 688 315 684 313

C679 311 675 306 674 301

C674 299 674 298 673 298

C673 298 671 300 668 303

C659 313 646 318 635 315

C626 313 623 309 619 298

C619 297 616 300 613 303

C604 312 597 315 587 315

C580 315 578 315 575 313

C570 311 565 306 562 301

C562 299 561 297 561 297

C560 297 557 300 554 303

C546 311 539 314 528 314

C521 314 519 314 516 312

C511 309 507 303 507 299

C507 298 507 297 507 297

C506 297 503 300 499 304

C493 310 490 312 486 314

C479 316 469 316 463 314

C458 312 450 304 449 300

C449 299 449 298 448 298

C448 298 446 300 443 303

C433 313 420 317 410 315

C402 314 400 312 396 306

C394 302 394 301 394 292

C394 284 394 278 398 264

C403 242 403 238 402 233

C401 226 395 224 388 228

C381 233 379 238 371 277

L363 314

L348 314

C332 314 332 314 334 308

C335 306 335 304 335 304

C334 304 333 305 331 307

C323 314 309 317 300 315

C294 313 289 308 287 302

C286 300 286 297 285 297

C285 297 283 300 279 303

C269 314 256 318 245 315

C238 313 234 309 230 302

L227 297

L222 302

C214 310 207 313 197 314

C192 314 187 314 185 313

C180 312 175 306 174 301

L173 297

L166 304

C158 312 151 315 141 315

C132 315 127 314 122 309

C114 301 111 290 113 273

C116 242 134 215 154 209

C157 208 163 207 167 207

C177 207 182 209 184 213

C185 215 185 216 186 215

C186 215 188 204 191 192

C193 180 195 169 196 169

C196 169 223 165 225 165

C226 165 225 174 214 224

C208 255 202 283 201 286

C201 289 201 290 203 292

C207 297 218 295 223 288

C224 287 225 282 226 274

C228 249 239 227 254 216

C261 209 269 207 280 207

C290 207 295 209 297 214

L298 218

L298 215

C300 207 299 208 315 208

C327 208 330 208 330 209

C330 210 326 228 322 249

C317 273 314 288 314 290

C316 296 322 298 329 295

C337 291 338 287 352 225

C358 194 364 170 365 169

C366 168 394 164 394 165

C395 165 392 177 389 191

C386 205 384 217 384 217

C385 217 386 216 388 215

C393 210 401 207 408 207

C416 207 421 209 426 213

C431 217 432 221 432 234

C431 243 430 250 427 264

C421 285 421 289 424 293

C426 295 427 295 431 295

C436 295 439 294 444 290

C446 288 446 287 446 281

C446 266 451 247 459 234

C465 224 475 214 483 210

C488 208 489 208 500 208

C512 208 512 208 515 210

C517 212 518 214 518 215

C518 219 520 213 524 192

C527 180 529 169 530 169

C531 168 559 165 560 165

C560 166 555 193 548 225

C541 258 535 286 535 288

C535 293 538 295 544 295

C549 295 553 293 556 288

C558 285 559 283 559 275

C561 247 576 220 595 211

C601 208 602 207 612 207

C621 207 623 207 626 209

C628 210 630 212 630 214

L632 217

L633 213

L633 208

L649 208

C657 208 664 208 664 208

C664 209 660 226 656 246

C652 267 648 285 648 287

C648 297 659 300 666 292

C671 287 674 279 681 245

C685 227 688 211 688 210

C689 208 689 208 704 208

C715 208 719 208 719 209

C719 210 716 226 711 246

C707 265 704 283 704 286

C704 292 706 295 711 295

C716 295 722 290 725 283

C726 280 731 262 735 243

C739 224 742 209 742 208

C743 208 749 208 758 208

L773 209

L759 274

C751 309 744 341 743 344

C739 355 731 363 721 366

C716 368 704 368 700 367

Z

M707 348

C709 347 712 343 713 341

C715 336 719 321 718 320

C717 319 704 326 701 329

C697 332 694 338 694 341

C694 344 696 347 699 349

C703 350 703 350 707 348

Z

M161 294

C165 291 170 286 171 281

C172 278 175 265 178 251

C183 228 183 226 182 224

C181 222 179 221 177 220

C170 217 160 225 153 239

C148 250 145 261 144 275

C144 284 144 286 146 289

C147 291 148 293 149 294

C151 295 158 295 161 294

Z

M276 292

C282 287 284 282 290 253

C296 227 296 227 294 224

C292 220 287 218 282 220

C278 222 270 231 266 239

C258 256 254 282 259 291

C262 296 269 297 276 292

Z

M498 291

C500 290 502 287 503 285

C504 283 508 269 511 254

C516 229 517 227 515 224

C513 220 509 219 504 220

C491 223 478 252 478 277

C477 291 480 295 489 295

C493 294 495 293 498 291

Z

M608 293

C612 291 616 286 618 281

C619 277 629 231 629 228

C629 224 627 221 623 220

C612 217 599 232 593 255

C587 280 590 295 600 295

C602 295 606 294 608 293

Z

"/>

</svg>

